<svg  xmlns="http://www.w3.org/2000/svg" viewBox="0 0 40 40" fill="#374151">
	<path d="M13.6,18.7H6v2.5h7.6V18.7z M16.4,14.6l-2.7-2.7l-1.8,1.8l2.7,2.7L16.4,14.6z M21.3,6h-2.5v7.6h2.5V6z
		M28.1,13.7l-1.8-1.8l-2.7,2.7l1.8,1.8L28.1,13.7z M26.4,18.7v2.5H34v-2.5H26.4z M20,16.2c-0.8,0-1.5,0.2-2.1,0.6s-1.1,1-1.4,1.7
		c-0.3,0.7-0.4,1.5-0.2,2.2c0.1,0.7,0.5,1.4,1,2c0.5,0.5,1.2,0.9,2,1c0.7,0.1,1.5,0.1,2.2-0.2c0.7-0.3,1.3-0.8,1.7-1.4
		s0.6-1.4,0.6-2.1c0-0.5-0.1-1-0.3-1.5s-0.5-0.9-0.8-1.2c-0.4-0.4-0.8-0.6-1.2-0.8C21,16.3,20.5,16.2,20,16.2z M23.6,25.4l2.7,2.7
		l1.8-1.8l-2.7-2.7L23.6,25.4L23.6,25.4z M11.9,26.3l1.8,1.8l2.7-2.7l-1.8-1.8L11.9,26.3L11.9,26.3z M18.7,34h2.5v-7.6h-2.5V34z"/>
</svg>
